<?xml version="1.0" standalone="no"?>
<!DOCTYPE svg PUBLIC "-//W3C//DTD SVG 20010904//EN"
 "http://www.w3.org/TR/2001/REC-SVG-20010904/DTD/svg10.dtd">
<svg version="1.0" xmlns="http://www.w3.org/2000/svg"
 width="1013.000000pt" height="102.000000pt" viewBox="0 0 1013.000000 102.000000"
 preserveAspectRatio="xMidYMid meet">

<g transform="translate(0.000000,102.000000) scale(0.100000,-0.100000)"
fill="#000000" stroke="none">
<path d="M990 882 c-47 -25 -131 -137 -184 -247 -48 -101 -66 -158 -69 -227
-2 -44 -3 -46 -21 -30 -10 9 -40 48 -66 85 -42 59 -48 74 -43 103 5 30 3 36
-16 41 -14 4 -35 33 -66 98 -25 50 -60 110 -79 131 -30 35 -36 38 -61 29 -15
-6 -33 -18 -39 -27 -9 -14 -4 -24 27 -52 21 -19 51 -63 68 -102 56 -123 58
-109 -23 -150 -59 -30 -70 -33 -65 -17 57 189 60 224 22 249 -23 15 -27 15
-50 0 -21 -14 -25 -24 -25 -64 0 -26 -7 -69 -14 -97 -8 -27 -26 -90 -40 -139
-49 -170 -45 -246 12 -246 41 0 52 17 52 81 0 91 6 100 115 152 54 26 99 46
100 45 2 -2 26 -43 55 -93 28 -49 60 -98 72 -107 27 -24 64 -23 81 2 14 20 14
19 25 -5 17 -36 70 -65 120 -65 82 0 184 47 320 146 l22 16 0 -55 c0 -65 12
-102 36 -111 32 -12 39 11 40 147 1 73 4 141 7 152 4 11 2 27 -3 35 -7 12 -26
10 -130 -15 -129 -31 -151 -45 -130 -85 13 -25 32 -25 105 0 l59 20 -29 -31
c-69 -72 -212 -149 -276 -149 -111 0 -57 301 81 450 31 33 44 41 67 38 27 -3
28 -2 26 42 -2 29 -8 49 -20 57 -22 16 -22 16 -63 -5z"/>
<path d="M4938 890 c-32 -19 -98 -132 -124 -213 -63 -198 -12 -401 138 -543
60 -56 74 -65 101 -62 25 2 33 8 35 27 3 18 -11 38 -59 84 -90 88 -130 179
-137 308 -6 119 10 179 73 274 57 87 63 105 39 122 -21 15 -42 16 -66 3z"/>
<path d="M6412 888 c-22 -22 -12 -43 52 -105 172 -165 191 -431 46 -612 -42
-52 -39 -95 5 -98 17 -2 37 3 46 10 31 24 89 126 114 202 62 183 33 347 -88
504 -70 91 -142 132 -175 99z"/>
<path d="M3348 859 c-27 -15 -23 -58 7 -69 17 -7 37 -36 70 -103 25 -51 45
-99 45 -107 -1 -14 -118 -75 -127 -66 -3 2 5 34 16 70 11 36 23 88 27 115 6
45 4 50 -20 66 -22 14 -32 16 -51 7 -20 -9 -25 -19 -25 -49 0 -40 -8 -74 -59
-264 -47 -177 -44 -239 15 -239 37 0 56 27 49 70 -4 21 -2 55 4 76 10 37 17
42 106 87 53 26 100 45 104 43 5 -3 32 -46 60 -96 29 -49 62 -97 74 -105 39
-28 87 -13 87 26 0 10 -31 59 -70 110 -58 78 -69 98 -67 128 2 27 -3 38 -18
45 -11 5 -38 47 -62 95 -74 154 -112 191 -165 160z"/>
<path d="M2844 831 c-119 -31 -143 -40 -164 -66 -12 -14 -11 -18 1 -25 11 -7
11 -12 1 -22 -7 -7 -12 -37 -12 -68 0 -44 -4 -61 -20 -75 -25 -23 -26 -55 -1
-62 15 -4 19 -18 24 -78 7 -101 35 -161 84 -181 34 -15 45 -15 118 0 144 28
260 101 278 174 16 68 -33 70 -90 3 -33 -39 -56 -53 -113 -75 -91 -34 -123
-34 -149 0 -17 21 -21 41 -21 99 l0 72 93 34 c72 27 93 38 95 55 6 41 -19 46
-98 19 -41 -14 -79 -25 -87 -25 -9 0 -13 16 -13 55 0 48 -3 57 -22 64 -25 9
68 26 202 37 91 7 120 21 120 59 0 45 -68 46 -226 6z"/>
<path d="M5573 833 c-14 -21 -18 -62 -22 -242 l-6 -216 -29 44 c-16 25 -51 95
-78 155 -60 135 -73 156 -98 156 -32 0 -47 -38 -64 -165 -10 -66 -20 -133 -23
-149 l-5 -29 -14 33 c-8 19 -32 99 -54 179 -22 79 -47 155 -55 168 -19 29 -49
30 -69 2 -13 -19 -12 -28 4 -87 10 -37 41 -128 68 -202 27 -74 57 -161 66
-192 19 -68 49 -95 80 -74 16 10 24 36 37 117 9 57 22 130 29 163 l12 59 40
-74 c88 -164 180 -255 229 -228 17 9 20 17 14 42 -15 71 -15 131 -2 312 8 104
11 200 8 214 -4 13 -17 28 -29 32 -18 7 -25 3 -39 -18z"/>
<path d="M1546 807 c-178 -36 -210 -45 -216 -62 -19 -52 22 -66 117 -41 29 8
55 11 57 7 3 -4 8 -79 11 -167 8 -193 19 -271 41 -295 20 -22 53 -24 79 -5 16
12 17 18 6 62 -20 76 -42 427 -28 436 6 4 41 10 77 13 87 8 110 19 110 49 0
21 -27 49 -42 45 -2 0 -97 -19 -212 -42z"/>
<path d="M2337 807 c-220 -44 -240 -53 -217 -97 13 -24 44 -25 117 -6 29 8 55
11 57 7 3 -4 7 -79 11 -166 8 -194 19 -272 41 -296 20 -22 53 -24 78 -6 17 13
17 17 2 88 -22 107 -40 401 -24 410 7 4 42 11 78 14 87 8 110 19 110 49 0 21
-26 49 -42 45 -2 0 -97 -19 -211 -42z"/>
<path d="M5789 831 c-23 -19 -24 -23 -21 -153 2 -126 15 -298 28 -381 8 -51
42 -74 84 -57 35 15 36 24 13 135 -12 57 -17 133 -17 263 -1 170 -2 185 -20
198 -26 19 -39 18 -67 -5z"/>
<path d="M6125 816 c-78 -19 -181 -70 -187 -94 -11 -41 17 -51 73 -28 25 11
31 -15 35 -159 5 -150 20 -273 36 -292 14 -17 59 -17 83 0 15 12 17 22 11 58
-4 24 -9 62 -12 84 l-5 40 62 35 c123 69 209 171 209 247 0 94 -148 147 -305
109z m169 -79 c54 -36 21 -114 -74 -179 -30 -21 -58 -38 -62 -38 -3 0 -9 30
-13 68 -3 37 -8 88 -11 114 -5 39 -3 47 13 51 34 10 121 0 147 -16z"/>
<path d="M3773 768 c-28 -31 -30 -37 -27 -93 2 -33 9 -138 14 -234 6 -96 16
-183 21 -193 13 -24 75 -25 88 -1 6 12 4 45 -4 93 -7 41 -16 118 -20 170 l-7
95 87 -132 c83 -126 90 -133 121 -133 38 0 41 4 69 85 33 94 97 209 106 192 5
-7 17 -82 28 -166 11 -84 26 -159 32 -167 16 -19 78 -18 86 1 3 9 -4 80 -16
158 -12 78 -24 180 -27 227 -7 95 -23 130 -58 130 -39 0 -61 -28 -144 -189
l-80 -154 -32 44 c-18 24 -64 98 -103 164 -65 111 -82 134 -98 135 -3 0 -19
-15 -36 -32z"/>
</g>
</svg>
